<svg width="32" height="32" viewBox="0 0 32 32" fill="none" xmlns="http://www.w3.org/2000/svg">
<path d="M20.5 16.05C19.6199 16.05 18.7595 16.311 18.0277 16.8C17.2959 17.2889 16.7255 17.9839 16.3887 18.7971C16.0519 19.6102 15.9638 20.5049 16.1355 21.3682C16.3072 22.2314 16.731 23.0243 17.3534 23.6466C17.9757 24.269 18.7686 24.6928 19.6318 24.8645C20.4951 25.0362 21.3898 24.9481 22.2029 24.6113C23.0161 24.2745 23.7111 23.7041 24.2 22.9723C24.689 22.2405 24.95 21.3801 24.95 20.5C24.95 19.3198 24.4812 18.1879 23.6466 17.3534C22.8121 16.5188 21.6802 16.05 20.5 16.05ZM22.95 21.25H21.25V22.95C21.25 23.0163 21.2237 23.0799 21.1768 23.1268C21.1299 23.1737 21.0663 23.2 21 23.2H20C19.9337 23.2 19.8701 23.1737 19.8232 23.1268C19.7763 23.0799 19.75 23.0163 19.75 22.95V21.25H18.05C17.9837 21.25 17.9201 21.2237 17.8732 21.1768C17.8263 21.1299 17.8 21.0663 17.8 21V20C17.8 19.9337 17.8263 19.8701 17.8732 19.8232C17.9201 19.7763 17.9837 19.75 18.05 19.75H19.75V18.05C19.75 17.9837 19.7763 17.9201 19.8232 17.8732C19.8701 17.8263 19.9337 17.8 20 17.8H21C21.0663 17.8 21.1299 17.8263 21.1768 17.8732C21.2237 17.9201 21.25 17.9837 21.25 18.05V19.75H22.95C23.0163 19.75 23.0799 19.7763 23.1268 19.8232C23.1737 19.8701 23.2 19.9337 23.2 20V21C23.2 21.0663 23.1737 21.1299 23.1268 21.1768C23.0799 21.2237 23.0163 21.25 22.95 21.25Z" fill="#4C1D95"/>
<path d="M15 20.55V11H19V12.5C19 12.6326 19.0527 12.7598 19.1464 12.8536C19.2402 12.9473 19.3674 13 19.5 13H20.5C20.6326 13 20.7598 12.9473 20.8536 12.8536C20.9473 12.7598 21 12.6326 21 12.5V9.5C21 9.36739 20.9473 9.24021 20.8536 9.14645C20.7598 9.05268 20.6326 9 20.5 9H7.5C7.36739 9 7.24021 9.05268 7.14645 9.14645C7.05268 9.24021 7 9.36739 7 9.5V12.5C7 12.6326 7.05268 12.7598 7.14645 12.8536C7.24021 12.9473 7.36739 13 7.5 13H8.5C8.63261 13 8.75979 12.9473 8.85355 12.8536C8.94732 12.7598 9 12.6326 9 12.5V11H13V21H11.5C11.3674 21 11.2402 21.0527 11.1464 21.1464C11.0527 21.2402 11 21.3674 11 21.5V22.5C11 22.6326 11.0527 22.7598 11.1464 22.8536C11.2402 22.9473 11.3674 23 11.5 23H15.586C15.2006 22.2408 14.9998 21.4014 15 20.55Z" fill="#4C1D95"/>
</svg>
