<svg width="32" height="32" viewBox="0 0 32 32" fill="none" xmlns="http://www.w3.org/2000/svg">
<path d="M15.0731 9.50506C16.6763 7.83502 17.4779 7 18.474 7C19.4702 7 20.2718 7.83502 21.875 9.50506C23.4783 11.1751 24.2799 12.0101 24.2799 13.0478C24.2799 14.0854 23.4783 14.9204 21.875 16.5904L17.8496 20.7837L11.0476 13.6983L15.0731 9.50506Z" fill="#4C1D95"/>
<path d="M10.0295 14.759L16.8315 21.8443L16.2068 22.4949C15.8442 22.8727 15.5226 23.2077 15.2305 23.5H24.28C24.6776 23.5 25 23.8358 25 24.25C25 24.6642 24.6776 25 24.28 25H12.76C11.7849 24.9747 10.9834 24.1393 9.40486 22.4949C7.80162 20.8249 7 19.9899 7 18.9522C7 17.9146 7.80162 17.0796 9.40486 15.4096L10.0295 14.759Z" fill="#4C1D95"/>
</svg>
