<svg width="16" height="13" viewBox="0 0 16 13" fill="none" xmlns="http://www.w3.org/2000/svg">
<path d="M15.5 0.5H0.5C0.367392 0.5 0.240215 0.552679 0.146447 0.646447C0.0526784 0.740215 0 0.867392 0 1V12C0 12.1326 0.0526784 12.2598 0.146447 12.3536C0.240215 12.4473 0.367392 12.5 0.5 12.5H15.5C15.6326 12.5 15.7598 12.4473 15.8536 12.3536C15.9473 12.2598 16 12.1326 16 12V1C16 0.867392 15.9473 0.740215 15.8536 0.646447C15.7598 0.552679 15.6326 0.5 15.5 0.5ZM15 10.1865L12.364 7.55C12.1765 7.36253 11.9222 7.25721 11.657 7.25721C11.3918 7.25721 11.1375 7.36253 10.95 7.55L9.414 9.086L5.636 5.3075C5.44847 5.12003 5.19416 5.01471 4.929 5.01471C4.66384 5.01471 4.40953 5.12003 4.222 5.3075L1 8.5295V1.5H15V10.1865Z" fill="#464646"/>
<path d="M12.35 5.5C13.0956 5.5 13.7 4.89558 13.7 4.15C13.7 3.40442 13.0956 2.8 12.35 2.8C11.6044 2.8 11 3.40442 11 4.15C11 4.89558 11.6044 5.5 12.35 5.5Z" fill="#464646"/>
</svg>
