<svg width="14" height="14" viewBox="0 0 14 14" fill="none" xmlns="http://www.w3.org/2000/svg">
<path d="M6.16897 1.34359C7.02926 0.483304 8.19605 0 9.41272 0C11.9462 0 14 2.05381 14 4.58731C14 5.80395 13.5167 6.97074 12.6564 7.83103L10.8624 9.625L9.625 8.38757L11.419 6.59359C11.9511 6.06149 12.25 5.33981 12.25 4.58731C12.25 3.02031 10.9797 1.75 9.41272 1.75C8.66019 1.75 7.93851 2.04893 7.40641 2.58103L5.61243 4.375L4.375 3.13757L6.16897 1.34359Z" fill="black"/>
<path d="M6.59359 11.419L8.38757 9.625L9.625 10.8624L7.83103 12.6564C6.97074 13.5167 5.80395 14 4.58731 14C2.05381 14 0 11.9462 0 9.41272C0 8.19606 0.483304 7.02926 1.34359 6.16897L3.13757 4.375L4.375 5.61243L2.58103 7.40641C2.04893 7.93851 1.75 8.66019 1.75 9.41272C1.75 10.9797 3.02031 12.25 4.58731 12.25C5.33981 12.25 6.06149 11.9511 6.59359 11.419Z" fill="black"/>
<path d="M4.99379 10.2437L10.2438 4.99373L9.00636 3.75629L3.75635 9.0063L4.99379 10.2437Z" fill="black"/>
</svg>
