<svg width="18" height="19" viewBox="0 0 18 19" fill="none" xmlns="http://www.w3.org/2000/svg">
<path d="M13.5 5.75C12.6165 5.77623 11.751 6.00571 10.9705 6.42063C10.1901 6.83556 9.51583 7.42476 9 8.1425C8.48418 7.42476 7.80988 6.83556 7.02945 6.42063C6.24903 6.00571 5.38348 5.77623 4.5 5.75C1.73475 5.75 0.75 7.68725 0.75 9.5C0.75 12.2653 2.68725 13.25 4.5 13.25C5.38348 13.2238 6.24903 12.9943 7.02945 12.5794C7.80988 12.1644 8.48418 11.5752 9 10.8575C9.51583 11.5752 10.1901 12.1644 10.9705 12.5794C11.751 12.9943 12.6165 13.2238 13.5 13.25C15.3127 13.25 17.25 12.2653 17.25 9.5C17.25 7.68725 16.2653 5.75 13.5 5.75ZM4.5 11.75C4.19548 11.7878 3.88635 11.7557 3.59614 11.656C3.30592 11.5563 3.04229 11.3917 2.82531 11.1747C2.60833 10.9577 2.44372 10.6941 2.34402 10.4039C2.24433 10.1137 2.21217 9.80452 2.25 9.5C2.21217 9.19548 2.24433 8.88635 2.34402 8.59614C2.44372 8.30592 2.60833 8.04229 2.82531 7.82531C3.04229 7.60833 3.30592 7.44372 3.59614 7.34402C3.88635 7.24433 4.19548 7.21217 4.5 7.25C6.43425 7.25 7.66875 8.79875 8.12775 9.5C7.66875 10.2013 6.43425 11.75 4.5 11.75ZM13.5 11.75C11.5658 11.75 10.3313 10.2013 9.87225 9.5C10.3313 8.79875 11.5658 7.25 13.5 7.25C13.8045 7.21217 14.1137 7.24433 14.4039 7.34402C14.6941 7.44372 14.9577 7.60833 15.1747 7.82531C15.3917 8.04229 15.5563 8.30592 15.656 8.59614C15.7557 8.88635 15.7878 9.19548 15.75 9.5C15.7878 9.80452 15.7557 10.1137 15.656 10.4039C15.5563 10.6941 15.3917 10.9577 15.1747 11.1747C14.9577 11.3917 14.6941 11.5563 14.4039 11.656C14.1137 11.7557 13.8045 11.7878 13.5 11.75Z" fill="black"/>
</svg>
