<svg width="32" height="34" viewBox="0 0 32 34" fill="none" xmlns="http://www.w3.org/2000/svg">
<g filter="url(#filter0_d_344_12978)">
<path d="M17.0526 14.9473L17.0526 7.57865C17.0498 7.3013 16.9377 7.03627 16.7406 6.84114C16.5435 6.64601 16.2773 6.53656 16 6.53656C15.7226 6.53656 15.4564 6.64601 15.2593 6.84114C15.0622 7.03627 14.9501 7.3013 14.9473 7.57865L14.9473 14.9473L7.57861 14.9473C7.30126 14.9501 7.03623 15.0623 6.8411 15.2594C6.64597 15.4565 6.53652 15.7226 6.53652 16C6.53652 16.2774 6.64597 16.5435 6.8411 16.7406C7.03623 16.9377 7.30126 17.0499 7.57861 17.0527L14.9473 17.0527L14.9473 24.4214C14.9501 24.6987 15.0622 24.9637 15.2593 25.1589C15.4564 25.354 15.7226 25.4634 16 25.4634C16.2773 25.4634 16.5435 25.354 16.7406 25.1589C16.9377 24.9637 17.0498 24.6987 17.0526 24.4214L17.0526 17.0527L24.4213 17.0527C24.6987 17.0499 24.9637 16.9377 25.1588 16.7406C25.3539 16.5435 25.4634 16.2774 25.4634 16C25.4634 15.7226 25.3539 15.4565 25.1588 15.2594C24.9637 15.0623 24.6987 14.9501 24.4213 14.9473L17.0526 14.9473Z" fill="#4C1D95"/>
</g>
<defs>
<filter id="filter0_d_344_12978" x="2.5365" y="6.53656" width="26.9269" height="26.9269" filterUnits="userSpaceOnUse" color-interpolation-filters="sRGB">
<feFlood flood-opacity="0" result="BackgroundImageFix"/>
<feColorMatrix in="SourceAlpha" type="matrix" values="0 0 0 0 0 0 0 0 0 0 0 0 0 0 0 0 0 0 127 0" result="hardAlpha"/>
<feOffset dy="4"/>
<feGaussianBlur stdDeviation="2"/>
<feComposite in2="hardAlpha" operator="out"/>
<feColorMatrix type="matrix" values="0 0 0 0 0 0 0 0 0 0 0 0 0 0 0 0 0 0 0.1 0"/>
<feBlend mode="normal" in2="BackgroundImageFix" result="effect1_dropShadow_344_12978"/>
<feBlend mode="normal" in="SourceGraphic" in2="effect1_dropShadow_344_12978" result="shape"/>
</filter>
</defs>
</svg>
