<svg width="32" height="32" viewBox="0 0 32 32" fill="none" xmlns="http://www.w3.org/2000/svg">
<path d="M23.567 12.63L19.359 8.42297C19.2589 8.32289 19.1231 8.26666 18.9815 8.26666C18.8399 8.26666 18.7041 8.32289 18.604 8.42297L16.7455 10.281C16.663 10.3647 16.6109 10.4737 16.5976 10.5905C16.5842 10.7074 16.6105 10.8253 16.672 10.9255L20.882 15.1355L20.886 15.127L20.979 15.2185C21.0285 15.2681 21.0873 15.3074 21.152 15.3343C21.2168 15.3611 21.2862 15.3749 21.3562 15.3749C21.4263 15.3749 21.4957 15.3611 21.5605 15.3343C21.6252 15.3074 21.684 15.2681 21.7335 15.2185L23.567 13.3855C23.6167 13.3359 23.6562 13.2771 23.6832 13.2123C23.7101 13.1474 23.724 13.0779 23.724 13.0077C23.724 12.9375 23.7101 12.868 23.6832 12.8032C23.6562 12.7384 23.6167 12.6795 23.567 12.63ZM15.731 11.6915L11.7925 13.5055C11.5639 13.6108 11.3834 13.7984 11.287 14.031L7.9895 21.9865C7.95158 22.0778 7.94161 22.1783 7.96083 22.2754C7.98006 22.3724 8.02762 22.4615 8.0975 22.5315L8.359 22.793L12.437 18.7145C12.4275 18.6727 12.4213 18.6302 12.4185 18.5875C12.4185 18.3897 12.4771 18.1964 12.587 18.0319C12.6969 17.8675 12.8531 17.7393 13.0358 17.6636C13.2185 17.5879 13.4196 17.5681 13.6136 17.6067C13.8076 17.6453 13.9858 17.7405 14.1256 17.8804C14.2655 18.0202 14.3607 18.1984 14.3993 18.3924C14.4379 18.5864 14.4181 18.7874 14.3424 18.9702C14.2667 19.1529 14.1385 19.3091 13.9741 19.4189C13.8096 19.5288 13.6163 19.5875 13.4185 19.5875C13.372 19.5846 13.3259 19.5779 13.2805 19.5675L9.207 23.6415L9.503 23.9375C9.57292 24.0074 9.66202 24.0551 9.75904 24.0744C9.85605 24.0937 9.95661 24.0838 10.048 24.046L18.0045 20.746C18.2369 20.6495 18.4243 20.469 18.5295 20.2405L20.3435 16.3025L15.731 11.6915Z" fill="#4C1D95"/>
</svg>
