<svg width="18" height="19" viewBox="0 0 18 19" fill="none" xmlns="http://www.w3.org/2000/svg">
<path d="M10.5 8V17H3C2.60218 17 2.22064 16.842 1.93934 16.5607C1.65804 16.2794 1.5 15.8978 1.5 15.5V8H10.5Z" fill="#151417"/>
<path d="M16.5 8V15.5C16.5 15.8978 16.342 16.2794 16.0607 16.5607C15.7794 16.842 15.3978 17 15 17H12V8H16.5Z" fill="#151417"/>
<path d="M16.5 3.5V6.5H1.5V3.5C1.5 3.10218 1.65804 2.72064 1.93934 2.43934C2.22064 2.15804 2.60218 2 3 2H15C15.3978 2 15.7794 2.15804 16.0607 2.43934C16.342 2.72064 16.5 3.10218 16.5 3.5Z" fill="#151417"/>
</svg>
